<svg width="25" height="25" viewBox="0 0 25 25" fill="none" xmlns="http://www.w3.org/2000/svg">
<path d="M21.3395 3.6615C16.4575 -1.2205 8.5435 -1.2205 3.6615 3.6615C-1.2205 8.5435 -1.2205 16.4575 3.6615 21.3395C8.5435 26.2215 16.4575 26.2215 21.3395 21.3395C26.2215 16.4575 26.2205 8.5435 21.3395 3.6615ZM19.3035 9.4095L11.7075 17.0065C11.52 17.194 11.2657 17.2993 11.0005 17.2993C10.7353 17.2993 10.481 17.194 10.2935 17.0065L5.6975 12.4095C5.60466 12.3167 5.53101 12.2064 5.48076 12.0851C5.43051 11.9638 5.40465 11.8338 5.40465 11.7025C5.40465 11.4373 5.50999 11.183 5.6975 10.9955C5.88501 10.808 6.13932 10.7027 6.4045 10.7027C6.66968 10.7027 6.92399 10.808 7.1115 10.9955L11.0005 14.8845L17.8895 7.9945C17.9824 7.90166 18.0927 7.82802 18.2141 7.7778C18.3354 7.72758 18.4655 7.70175 18.5969 7.7018C18.7282 7.70184 18.8583 7.72776 18.9796 7.77807C19.1009 7.82838 19.2112 7.90209 19.304 7.995C19.3968 8.08791 19.4705 8.1982 19.5207 8.31957C19.5709 8.44094 19.5967 8.57101 19.5967 8.70235C19.5967 8.8337 19.5707 8.96376 19.5204 9.08509C19.4701 9.20642 19.3964 9.31666 19.3035 9.4095Z" fill="#46B25C"/>
</svg>
