<svg width="44" height="45" viewBox="0 0 44 45" fill="none" xmlns="http://www.w3.org/2000/svg">
<path d="M17.8872 2.81265H26.606L27.4685 11.2502H18.5997L31.5747 24.2439C31.5933 23.9442 31.5933 23.6436 31.5747 23.3439V22.7064L30.5435 12.5064L29.531 2.5314C29.4597 1.81541 29.1168 1.15394 28.5727 0.683092C28.0286 0.212247 27.3248 -0.0321605 26.606 0.000154855H17.8872C17.1908 0.00130691 16.5195 0.260803 16.0035 0.728408C15.4874 1.19601 15.1631 1.83847 15.0935 2.5314L14.606 7.27516L17.1747 9.8439L17.8872 2.81265Z" fill="#E8A02C"/>
<path d="M4.53739 2.85001C4.31553 2.62912 4.05228 2.45415 3.76272 2.3351C3.47316 2.21606 3.16297 2.15529 2.84989 2.15626C2.24196 2.16591 1.66243 2.41525 1.23739 2.85001C1.01913 3.06773 0.845958 3.32636 0.727803 3.6111C0.609648 3.89585 0.548828 4.2011 0.548828 4.50939C0.548828 4.81767 0.609648 5.12293 0.727803 5.40767C0.845958 5.69241 1.01913 5.95105 1.23739 6.16876L13.4811 18.4125L12.9749 23.325C12.7044 25.7277 13.3726 28.1421 14.8401 30.0638C16.3075 31.9854 18.4607 33.2658 20.8499 33.6375V38.3625C17.7374 38.475 12.9186 39.075 12.9186 41.6813C12.9186 44.6813 19.3874 45 22.1624 45C24.9374 45 31.4061 44.6813 31.4061 41.6813C31.4061 39.1313 26.7561 38.5125 23.6624 38.3813V33.6375C25 33.4596 26.2811 32.9856 27.4124 32.25L39.1499 43.9875C39.5865 44.4279 40.1798 44.6774 40.7999 44.6813C41.4249 44.6743 42.0229 44.4257 42.4686 43.9875C42.7895 43.6602 43.0082 43.2466 43.098 42.7971C43.1879 42.3477 43.1451 41.8818 42.9749 41.4563C42.8558 41.165 42.6842 40.898 42.4686 40.6688L4.53739 2.85001Z" fill="#E8A02C"/>
</svg>
