<svg width="47" height="44" viewBox="0 0 47 44" fill="none" xmlns="http://www.w3.org/2000/svg">
<path d="M47 5.65633C47 4.57336 46.5874 3.53475 45.8528 2.76898C45.1183 2.0032 44.1221 1.57299 43.0833 1.57299H41.36C41.1866 1.57146 41.0164 1.52376 40.8656 1.43444C40.7148 1.34511 40.5884 1.21711 40.4983 1.06258C40.4161 0.905426 40.2941 0.774767 40.1457 0.684785C39.9972 0.594803 39.8279 0.548935 39.6562 0.552161H33.7812C33.5216 0.552161 33.2725 0.659713 33.0889 0.851156C32.9052 1.0426 32.8021 1.30225 32.8021 1.57299V17.7022C32.8034 17.8033 32.8336 17.9018 32.8887 17.985C32.9438 18.0683 33.0214 18.1326 33.1116 18.1697C33.2019 18.2069 33.3006 18.2153 33.3955 18.1939C33.4903 18.1724 33.5768 18.1221 33.6442 18.0492L36.3662 15.2113C36.4119 15.1619 36.4667 15.1226 36.5272 15.0958C36.5878 15.069 36.6529 15.0551 36.7188 15.0551C36.7846 15.0551 36.8497 15.069 36.9103 15.0958C36.9708 15.1226 37.0256 15.1619 37.0713 15.2113L39.7933 18.0492C39.8607 18.1221 39.9472 18.1724 40.042 18.1939C40.1369 18.2153 40.2356 18.2069 40.3259 18.1697C40.4161 18.1326 40.4937 18.0683 40.5488 17.985C40.6039 17.9018 40.6341 17.8033 40.6354 17.7022V6.67716C40.6354 6.40642 40.7386 6.14677 40.9222 5.95532C41.1058 5.76388 41.3549 5.65633 41.6146 5.65633H42.1042C42.3639 5.65633 42.6129 5.76388 42.7965 5.95532C42.9802 6.14677 43.0833 6.40642 43.0833 6.67716V33.2188C43.0833 33.4896 42.9802 33.7492 42.7965 33.9407C42.6129 34.1321 42.3639 34.2397 42.1042 34.2397H29.375C28.4749 34.2289 27.578 34.3526 26.7117 34.6072C26.5654 34.6485 26.4122 34.6553 26.2631 34.627C26.1141 34.5987 25.9729 34.5362 25.85 34.4438C25.7295 34.3477 25.6316 34.2241 25.5637 34.0826C25.4959 33.9411 25.4598 33.7854 25.4583 33.6272V10.7605C25.4583 6.55466 27.5929 5.81966 28.9638 5.67674C29.2096 5.65617 29.439 5.5396 29.606 5.35034C29.773 5.16109 29.8654 4.91308 29.8646 4.65591V2.61424C29.865 2.47303 29.8373 2.33326 29.7833 2.20376C29.7293 2.07427 29.6501 1.95787 29.5507 1.86192C29.4513 1.76598 29.3339 1.69258 29.2059 1.64636C29.0779 1.60014 28.9421 1.58211 28.8071 1.59341C27.0942 1.65681 25.4548 2.33471 24.1658 3.51258C23.9827 3.68333 23.7457 3.77773 23.5 3.77773C23.2543 3.77773 23.0173 3.68333 22.8342 3.51258C21.4003 2.19412 19.5356 1.49983 17.625 1.57299H3.91667C2.8779 1.57299 1.88168 2.0032 1.14717 2.76898C0.412648 3.53475 0 4.57336 0 5.65633L0 34.2397C0 35.3226 0.412648 36.3612 1.14717 37.127C1.88168 37.8928 2.8779 38.323 3.91667 38.323H17.625C20.445 38.323 21.5417 39.4663 21.5417 42.4063C21.5417 42.9478 21.748 43.4671 22.1152 43.85C22.4825 44.2329 22.9806 44.448 23.5 44.448C24.0194 44.448 24.5175 44.2329 24.8848 43.85C25.252 43.4671 25.4583 42.9478 25.4583 42.4063C25.4583 39.4663 26.555 38.323 29.375 38.323H43.0833C44.1221 38.323 45.1183 37.8928 45.8528 37.127C46.5874 36.3612 47 35.3226 47 34.2397V5.65633ZM17.625 34.2397H4.89583C4.63614 34.2397 4.38709 34.1321 4.20346 33.9407C4.01983 33.7492 3.91667 33.4896 3.91667 33.2188V6.67716C3.91667 6.40642 4.01983 6.14677 4.20346 5.95532C4.38709 5.76388 4.63614 5.65633 4.89583 5.65633H17.625C21.0325 5.65633 21.5417 8.86174 21.5417 10.7605V33.6272C21.5402 33.7854 21.5041 33.9411 21.4363 34.0826C21.3684 34.2241 21.2705 34.3477 21.15 34.4438C21.0271 34.5362 20.8859 34.5987 20.7369 34.627C20.5878 34.6553 20.4346 34.6485 20.2883 34.6072C19.422 34.3526 18.5251 34.2289 17.625 34.2397Z" fill="#6153BD"/>
</svg>
