<svg width="194" height="161" viewBox="0 0 194 161" fill="none" xmlns="http://www.w3.org/2000/svg">
<g clip-path="url(#clip0_2010_112)">
<path d="M5.77572 115.031C24.3528 150.555 81.0886 158.686 119.279 150.694C126.777 149.125 180.036 137.175 191.678 95.2618C199.851 65.839 183.628 35.6405 156.179 19.6724C117.761 -2.67692 67.7086 8.87537 38.9392 28.9758C12.9043 47.1656 -10.9645 83.0199 5.77572 115.031Z" fill="#C2E5FF"/>
<mask id="mask0_2010_112" style="mask-type:luminance" maskUnits="userSpaceOnUse" x="0" y="7" width="194" height="147">
<path d="M5.58561 115.104C24.2014 150.702 81.0555 158.849 119.326 150.841C126.839 149.268 180.21 137.293 191.876 95.2927C200.065 65.8087 183.809 35.5472 156.303 19.5457C117.805 -2.85017 67.6478 8.72613 38.8183 28.8684C12.7292 47.0963 -11.1894 83.0252 5.58561 115.104Z" fill="white"/>
</mask>
<g mask="url(#mask0_2010_112)">
<path d="M83.2858 41.7453C83.0782 41.7453 82.8732 41.7537 82.6671 41.7583C80.2859 33.4005 71.2441 27.1794 60.4457 27.1794C52.9706 27.1794 46.335 30.1601 42.1682 34.7668C38.7869 33.6323 35.0922 33.0062 31.2209 33.0062C15.0804 33.0062 1.99609 43.8648 1.99609 57.2597C1.99609 70.6547 15.0804 81.5133 31.2209 81.5133C35.3555 81.5133 39.2887 80.7992 42.8536 79.514C46.495 82.804 51.7204 84.8674 57.5276 84.8674C64.2208 84.8674 70.1386 82.1253 73.751 77.9238C76.6536 79.0324 79.8813 79.6553 83.2858 79.6553C95.9 79.6553 106.126 71.1688 106.126 60.7003C106.126 50.2318 95.9 41.7453 83.2858 41.7453ZM131.365 70.8032C131.529 70.8032 131.691 70.7965 131.854 70.7929C133.736 77.3979 140.881 82.3144 149.415 82.3144C155.323 82.3144 160.567 79.9589 163.86 76.3181C166.532 77.2148 169.452 77.7096 172.511 77.7096C185.267 77.7096 195.607 69.128 195.607 58.5422C195.607 47.9564 185.267 39.3749 172.511 39.3749C169.244 39.3749 166.135 39.9392 163.318 40.955C160.44 38.355 156.311 36.7243 151.721 36.7243C146.432 36.7243 141.755 38.8914 138.9 42.2117C136.537 41.3085 133.966 40.8417 131.365 40.8435C121.396 40.8435 113.315 47.5502 113.315 55.8234C113.315 64.0965 121.396 70.8032 131.365 70.8032Z" fill="white"/>
</g>
<mask id="mask1_2010_112" style="mask-type:luminance" maskUnits="userSpaceOnUse" x="0" y="7" width="194" height="147">
<path d="M5.58561 115.104C24.2014 150.702 81.0555 158.849 119.326 150.841C126.839 149.268 180.21 137.293 191.876 95.2927C200.065 65.8087 183.809 35.5472 156.303 19.5457C117.805 -2.85017 67.6478 8.72613 38.8183 28.8684C12.7292 47.0963 -11.1894 83.0252 5.58561 115.104Z" fill="white"/>
</mask>
<g mask="url(#mask1_2010_112)">
<path d="M8.29297 145.791C8.29297 145.791 45.3069 67.5053 64.3279 63.2868C81.2853 59.5262 126.857 115.179 126.857 115.179C126.857 115.179 146.24 90.8503 159.631 80.8289C162.849 78.4208 167.873 78.8702 170.414 81.7831C178.796 91.3933 197.942 114.885 213.875 145.791H8.29297Z" fill="#FFBE55"/>
</g>
<mask id="mask2_2010_112" style="mask-type:luminance" maskUnits="userSpaceOnUse" x="0" y="7" width="194" height="147">
<path d="M5.58561 115.104C24.2014 150.702 81.0555 158.849 119.326 150.841C126.839 149.268 180.21 137.293 191.876 95.2927C200.065 65.8087 183.809 35.5472 156.303 19.5457C117.805 -2.85017 67.6478 8.72613 38.8183 28.8684C12.7292 47.0963 -11.1894 83.0252 5.58561 115.104Z" fill="white"/>
</mask>
<g mask="url(#mask2_2010_112)">
<path opacity="0.25" d="M8.29297 145.791C8.29297 145.791 45.3069 67.5053 64.3279 63.2868C81.2853 59.5262 126.857 115.179 126.857 115.179C126.857 115.179 146.24 90.8503 159.631 80.8289C162.849 78.4208 167.873 78.8702 170.414 81.7831C178.796 91.3933 197.942 114.885 213.875 145.791H8.29297Z" fill="#282828"/>
</g>
<mask id="mask3_2010_112" style="mask-type:luminance" maskUnits="userSpaceOnUse" x="0" y="7" width="194" height="147">
<path d="M5.58561 115.104C24.2014 150.702 81.0555 158.849 119.326 150.841C126.839 149.268 180.21 137.293 191.876 95.2927C200.065 65.8087 183.809 35.5472 156.303 19.5457C117.805 -2.85017 67.6478 8.72613 38.8183 28.8684C12.7292 47.0963 -11.1894 83.0252 5.58561 115.104Z" fill="white"/>
</mask>
<g mask="url(#mask3_2010_112)">
<path d="M50.1197 117.833L36.2441 155.129H52.8606L50.1197 117.833Z" fill="#FFBE55"/>
</g>
<mask id="mask4_2010_112" style="mask-type:luminance" maskUnits="userSpaceOnUse" x="0" y="7" width="194" height="147">
<path d="M5.58561 115.104C24.2014 150.702 81.0555 158.849 119.326 150.841C126.839 149.268 180.21 137.293 191.876 95.2927C200.065 65.8087 183.809 35.5472 156.303 19.5457C117.805 -2.85017 67.6478 8.72613 38.8183 28.8684C12.7292 47.0963 -11.1894 83.0252 5.58561 115.104Z" fill="white"/>
</mask>
<g mask="url(#mask4_2010_112)">
<path d="M204.876 155.129C196.11 149.445 187.252 143.861 178.303 138.377C153.989 123.478 119.914 103.753 93.494 102.13C89.8419 101.906 86.8231 102.057 86.1663 102.093C79.4602 102.452 63.5462 103.304 53.7966 113.161C37.9038 129.229 52.2501 154.062 52.8605 155.129L204.876 155.129Z" fill="#FFBE55"/>
</g>
<mask id="mask5_2010_112" style="mask-type:luminance" maskUnits="userSpaceOnUse" x="0" y="7" width="194" height="147">
<path d="M5.58561 115.104C24.2014 150.702 81.0555 158.849 119.326 150.841C126.839 149.268 180.21 137.293 191.876 95.2927C200.065 65.8087 183.809 35.5472 156.303 19.5457C117.805 -2.85017 67.6478 8.72613 38.8183 28.8684C12.7292 47.0963 -11.1894 83.0252 5.58561 115.104Z" fill="white"/>
</mask>
<g mask="url(#mask5_2010_112)">
<path opacity="0.5" d="M204.876 155.129C196.11 149.445 187.252 143.861 178.303 138.377C153.989 123.478 119.914 103.753 93.494 102.13C89.8419 101.906 86.8231 102.057 86.1663 102.093C79.4602 102.452 63.5462 103.304 53.7966 113.161C37.9038 129.229 52.2501 154.062 52.8605 155.129L204.876 155.129Z" fill="white"/>
</g>
<mask id="mask6_2010_112" style="mask-type:luminance" maskUnits="userSpaceOnUse" x="0" y="7" width="194" height="147">
<path d="M5.58561 115.104C24.2014 150.702 81.0555 158.849 119.326 150.841C126.839 149.268 180.21 137.293 191.876 95.2927C200.065 65.8087 183.809 35.5472 156.303 19.5457C117.805 -2.85017 67.6478 8.72613 38.8183 28.8684C12.7292 47.0963 -11.1894 83.0252 5.58561 115.104Z" fill="white"/>
</mask>
<g mask="url(#mask6_2010_112)">
<path opacity="0.5" d="M69.981 126.112L103.379 155.129H122.758L79.0839 126.112H69.981ZM95.2026 126.112L140.952 155.129H160.331L104.306 126.112H95.2026ZM103.379 109.962L162.076 145.791C162.076 145.791 177.7 142.683 190.249 145.791L105.843 109.962H103.379Z" fill="#0B4870"/>
</g>
<mask id="mask7_2010_112" style="mask-type:luminance" maskUnits="userSpaceOnUse" x="0" y="7" width="194" height="147">
<path d="M5.58561 115.104C24.2014 150.702 81.0555 158.849 119.326 150.841C126.839 149.268 180.21 137.293 191.876 95.2927C200.065 65.8087 183.809 35.5472 156.303 19.5457C117.805 -2.85017 67.6478 8.72613 38.8183 28.8684C12.7292 47.0963 -11.1894 83.0252 5.58561 115.104Z" fill="white"/>
</mask>
<g mask="url(#mask7_2010_112)">
<path d="M103.379 109.962V38.094H105.843V109.962C105.82 109.988 105.332 110.556 104.503 110.507C103.806 110.465 103.426 110.019 103.379 109.962Z" fill="#0B4870"/>
</g>
<mask id="mask8_2010_112" style="mask-type:luminance" maskUnits="userSpaceOnUse" x="0" y="7" width="194" height="147">
<path d="M5.58561 115.104C24.2014 150.702 81.0555 158.849 119.326 150.841C126.839 149.268 180.21 137.293 191.876 95.2927C200.065 65.8087 183.809 35.5472 156.303 19.5457C117.805 -2.85017 67.6478 8.72613 38.8183 28.8684C12.7292 47.0963 -11.1894 83.0252 5.58561 115.104Z" fill="white"/>
</mask>
<g mask="url(#mask8_2010_112)">
<path d="M89.3077 65.0448C89.7726 64.5031 90.1898 63.9344 90.5563 63.343C91.4281 61.936 92.7716 59.7683 91.7183 58.4415C91.5542 58.2349 91.2411 57.934 90.6077 57.6956C90.5405 57.8696 90.4728 58.0435 90.4046 58.2172C89.0956 61.551 88.5948 62.2827 88.7373 63.4548C88.7839 63.8368 88.9139 64.3905 89.3077 65.0448Z" fill="#0B4870"/>
<path d="M89.0778 63.5647C88.2328 66.0775 84.1559 66.2024 84.1559 66.2024L89.0778 63.5647ZM84.6171 67.3622C84.6171 67.3622 79.606 68.7818 78.5723 69.3277C78.5723 69.3277 85.4049 75.306 95.3946 69.1181C94.5996 68.7103 94.4576 68.6943 93.3796 68.3032C91.9887 67.7985 90.0247 67.118 88.9202 66.8993L84.6171 67.3622Z" fill="#EFB68F"/>
<path d="M84.4004 66.187L84.7182 67.9113L89.0777 67.7687L89.7663 63.2869H88.7214L84.4004 66.187Z" fill="#EFB68F"/>
<path d="M90.8657 62.2426C90.6927 62.6884 90.2986 63.0626 89.7662 63.2868C88.2553 63.9096 87.9041 62.3172 88.5566 61.5926C89.333 60.7291 91.3265 61.0453 90.8657 62.2426Z" fill="#EFB68F"/>
<path d="M83.7783 67.6826C83.7783 67.6826 86.4369 70.4229 90.4092 67.2944C91.0659 67.3391 91.7725 67.6437 92.6397 67.846C93.6017 68.0707 94.527 68.3923 95.3948 68.8037L94.8699 88.6649H80.0258L78.4302 69.3963C79.0324 69.118 79.7382 68.6495 80.5454 68.3949C81.5904 68.0653 82.6739 67.8266 83.7783 67.6826Z" fill="#FFBE55"/>
<path d="M95.803 94.9863C94.7189 96.316 93.6181 96.7341 92.9281 96.8892C92.7152 96.9371 92.0354 96.951 90.677 97C89.6306 97.0377 88.5414 97.0574 87.3955 97.0553C86.7451 97.0541 86.0947 97.0458 85.4445 97.0305C83.4258 96.9828 82.4162 96.9682 82.0238 96.8845C81.3007 96.7302 80.0303 96.2672 78.8081 94.5633L79.9867 88.665H94.86L95.803 94.9863Z" fill="#0B4870"/>
<path d="M99.2894 123.897L98.1113 117.833L95.2026 118.162L96.3742 124.218L99.2894 123.897Z" fill="#FFBE55"/>
<path d="M95.9116 123.712L95.3945 125.613H104.497V125.558C104.497 125.343 104.424 125.133 104.286 124.952C104.148 124.77 103.951 124.625 103.718 124.533L99.4929 123.134C99.341 123.074 99.1457 123.076 99.0299 123.178C98.484 123.656 97.8844 124.435 96.2177 123.59C96.0968 123.529 95.9385 123.597 95.9116 123.712Z" fill="#0B4870"/>
<path d="M95.3945 125.613H104.497V126.112H95.3945V125.613Z" fill="#FFBE55"/>
<path d="M91.3998 106.809L97.322 106.159L95.6921 94.171C95.4641 92.4943 93.6224 91.2994 91.6068 91.5205C90.6813 91.78 89.8344 92.2028 89.1245 92.7598C88.0687 93.5896 87.5974 94.4993 87.3955 94.977C88.7301 98.921 90.0649 102.865 91.3998 106.809Z" fill="#0B4870"/>
<path d="M94.5765 121.522L99.5595 120.975L96.7883 102.039C96.5719 100.568 94.9511 99.5261 93.1808 99.7203C91.385 99.9173 90.1412 101.308 90.4331 102.791L94.5765 121.522Z" fill="#0B4870"/>
<path d="M75.3911 123.897L76.569 117.833L79.4777 118.162L78.3061 124.218L75.3911 123.897Z" fill="#FFBE55"/>
<path d="M83.1493 106.809L77.3584 106.159L78.8572 94.171C79.0852 92.4943 80.9269 91.2994 82.9425 91.5205C83.0549 91.5328 83.451 91.5811 83.9311 91.757C83.9311 91.757 84.8453 92.0962 85.4248 92.7598C86.0658 93.494 86.0895 94.3938 86.0255 95.1116C85.8692 96.8606 84.867 101.166 83.1493 106.809Z" fill="#0B4870"/>
<path d="M80.1041 121.522L75.1211 120.975L77.8924 102.039C78.1087 100.568 79.7296 99.5261 81.4998 99.7203C83.2956 99.9173 84.5395 101.308 84.2475 102.791L80.1041 121.522Z" fill="#0B4870"/>
<path d="M93.9441 87.5581C94.3533 87.4452 94.5848 87.52 94.5848 87.52C94.8178 87.2485 95.2486 87.214 95.5283 87.4445L95.7263 87.6077C95.985 87.8208 96.0191 88.1843 95.8039 88.4357L95.7916 88.4502C95.7916 88.4502 95.4103 89.302 94.5468 90.0703C93.4313 91.0628 92.413 91.0434 92.1073 90.6993C91.8185 90.374 93.0684 89.1424 93.5262 88.68L92.8188 88.8691C92.729 88.8931 92.6328 88.8602 92.5813 88.7879C92.5258 88.7101 92.5363 88.6071 92.6063 88.5402L93.1615 88.0106C93.3788 87.8033 93.645 87.6408 93.9441 87.5581Z" fill="#EFB68F"/>
<path d="M94.9023 87.319L100.687 79.2246C101.193 78.5274 102.246 78.4042 102.923 78.9631C103.534 79.468 103.595 80.3349 103.058 80.9084L95.9389 88.1368L94.9023 87.319Z" fill="#EFB68F"/>
<path d="M96.6248 70.1283C98.0677 71.7436 100.028 73.4381 102.897 77.8887C103.201 78.3602 103.759 79.2532 103.473 80.1394C103.341 80.5506 103.067 80.8354 102.855 81.0114C102.561 80.9758 102.098 80.8841 101.595 80.623C100.954 80.29 100.571 79.8486 100.384 79.5992L92.5827 71.7915C91.865 71.0168 91.9695 69.8496 92.8108 69.2413C93.5939 68.6752 95.9707 69.396 96.6248 70.1283Z" fill="#EFB68F"/>
<path d="M90.8786 67.5491C91.8459 67.6481 93.0151 67.8629 94.256 68.3174C98.0355 69.7014 99.8767 72.353 100.528 73.4245L97.0962 77.0333C96.3199 76.4773 95.5837 75.8838 94.8915 75.2559C93.4656 73.963 92.2278 72.8409 91.4855 71.1677C91.163 70.4405 90.7566 69.2091 90.8786 67.5491Z" fill="#FFBE55"/>
<path d="M80.7913 87.5581C80.3844 87.4452 80.1543 87.52 80.1543 87.52C79.9228 87.2485 79.4944 87.214 79.2163 87.4445L79.0194 87.6077C78.7622 87.8208 78.7284 88.1843 78.9423 88.4357L78.9546 88.4502C78.9546 88.4502 79.3337 89.302 80.1921 90.0703C81.3012 91.0628 82.3137 91.0434 82.6175 90.6993C82.9046 90.374 81.662 89.1424 81.2068 88.68L81.9102 88.8691C81.9994 88.8931 82.0951 88.8602 82.1464 88.7879C82.2015 88.7101 82.1912 88.6071 82.1215 88.5402L81.5694 88.0106C81.3532 87.8033 81.0886 87.6408 80.7913 87.5581Z" fill="#EFB68F"/>
<path d="M79.8386 87.319L74.087 79.2246C73.5841 78.5274 72.5373 78.4042 71.8644 78.9631C71.2567 79.468 71.1967 80.3349 71.7299 80.9084L78.8078 88.1368L79.8386 87.319Z" fill="#EFB68F"/>
<path d="M78.1261 70.1283C76.6917 71.7436 74.7425 73.4381 71.8899 77.8887C71.5877 78.3602 71.0327 79.2532 71.3169 80.1394C71.4488 80.5506 71.7214 80.8354 71.9316 81.0114C72.2243 80.9758 72.6848 80.8841 73.1845 80.623C73.8219 80.29 74.2028 79.8486 74.3889 79.5992L82.1447 71.7915C82.8581 71.0168 82.7543 69.8496 81.9179 69.2413C81.1396 68.6752 78.7765 69.396 78.1261 70.1283Z" fill="#EFB68F"/>
<path d="M83.8459 67.5491C82.8844 67.6463 81.7134 67.8598 80.4686 68.3174C76.7858 69.6712 74.9776 72.2348 74.3311 73.2831L77.8208 77.3993C78.5099 76.8733 79.1619 76.3148 79.7736 75.7265C81.0231 74.5249 82.4359 73.1662 83.2389 71.168C83.5451 70.4059 83.9155 69.1706 83.8459 67.5491Z" fill="#FFBE55"/>
<path d="M78.5669 123.712L79.0839 125.613H69.981V125.558C69.981 125.343 70.0542 125.133 70.1922 124.952C70.3303 124.77 70.5274 124.625 70.7608 124.533L74.9855 123.134C75.1375 123.074 75.3328 123.076 75.4485 123.178C75.9945 123.656 76.5941 124.435 78.2607 123.59C78.3816 123.529 78.5399 123.597 78.5669 123.712Z" fill="#0B4870"/>
<path d="M79.084 126.112H69.981V125.613H79.084V126.112Z" fill="#FFBE55"/>
<path d="M84.4004 66.1869C84.5679 66.3884 84.8128 66.6005 85.1568 66.677C86.2372 66.9175 87.4698 65.6376 87.9653 65.1232C88.421 64.6487 88.7954 64.1243 89.0779 63.5647C88.8417 63.8816 88.5313 64.2298 84.4004 66.1869Z" fill="#E0A882"/>
<path d="M89.7118 57.6936C88.0811 56.0372 84.4515 55.7392 82.6497 57.0449C81.8322 57.6374 81.6114 58.4004 81.2854 59.5262C81.1858 59.8703 80.4853 62.4486 82.0341 64.8235C82.6336 65.7425 83.1543 65.9941 83.5177 66.0993C84.2504 66.3114 84.9491 66.0962 85.5942 65.9105C86.9012 65.534 87.701 64.8486 87.9938 64.5919C89.3927 63.3652 91.8568 59.8723 89.7118 57.6936Z" fill="#EFB68F"/>
<path d="M87.5186 58.664C87.5186 58.664 89.9259 59.4403 88.8266 61.9935L89.6458 62.0856C89.6458 62.0856 89.8215 61.0748 90.8912 61.2267C90.8912 61.2267 91.7573 57.6761 89.5748 56.8127L87.5186 58.664Z" fill="#0B4870"/>
<path d="M87.5184 58.6639C87.5184 58.6639 84.7002 57.083 82.3722 58.0392C82.1181 57.9884 81.534 57.8389 81.1025 57.3924C80.5281 56.7981 80.4597 55.9209 80.9151 55.1438C80.9151 55.1438 81.3502 55.2867 81.9173 55.3975C82.7179 55.5539 83.3495 55.4826 83.711 55.4586C84.4948 55.4065 85.9562 55.3095 86.9873 55.4917C87.6665 55.6116 88.5862 55.9283 89.5747 56.8127C90.1778 57.2813 90.2249 58.0642 89.7038 58.5659C89.1588 59.0908 88.1599 59.1461 87.5184 58.6639Z" fill="#0B4870"/>
<path d="M82.372 58.0394C82.372 58.0394 81.5931 58.883 81.1377 60.6773C81.1377 60.6773 81.3422 57.8758 82.1108 57.7343C82.8793 57.5927 82.372 58.0394 82.372 58.0394Z" fill="#0B4870"/>
</g>
<mask id="mask9_2010_112" style="mask-type:luminance" maskUnits="userSpaceOnUse" x="0" y="7" width="194" height="147">
<path d="M5.58561 115.104C24.2014 150.702 81.0555 158.849 119.326 150.841C126.839 149.268 180.21 137.293 191.876 95.2927C200.065 65.8087 183.809 35.5472 156.303 19.5457C117.805 -2.85017 67.6478 8.72613 38.8183 28.8684C12.7292 47.0963 -11.1894 83.0252 5.58561 115.104Z" fill="white"/>
</mask>
<g mask="url(#mask9_2010_112)">
<path d="M146.525 55.1056C143.627 54.6611 139.196 54.215 133.888 54.6787C126.252 55.3456 123.234 57.3332 116.73 57.5331C113.443 57.6341 108.655 57.2975 102.729 55.1056V34.5766C106.692 36.3437 111.836 37.8785 117.668 37.4672C122.675 37.1141 124.917 35.5571 130.728 34.5766C134.658 33.9134 139.94 33.5614 146.525 34.5766L146.525 55.1056Z" fill="#FFBE55"/>
</g>
<mask id="mask10_2010_112" style="mask-type:luminance" maskUnits="userSpaceOnUse" x="0" y="7" width="194" height="147">
<path d="M5.58561 115.104C24.2014 150.702 81.0555 158.849 119.326 150.841C126.839 149.268 180.21 137.293 191.876 95.2927C200.065 65.8087 183.809 35.5472 156.303 19.5457C117.805 -2.85017 67.6478 8.72613 38.8183 28.8684C12.7292 47.0963 -11.1894 83.0252 5.58561 115.104Z" fill="white"/>
</mask>
<g mask="url(#mask10_2010_112)">
<path d="M124.956 39.8032L127.282 43.7147L132.484 44.3419L128.72 47.3866L129.608 51.6857L124.956 49.6559L120.304 51.6857L121.192 47.3866L117.429 44.3419L122.63 43.7147L124.956 39.8032Z" fill="white"/>
</g>
</g>
<defs>
<clipPath id="clip0_2010_112">
<rect width="194" height="161" fill="white"/>
</clipPath>
</defs>
</svg>
