<svg width="45" height="43" viewBox="0 0 45 43" fill="none" xmlns="http://www.w3.org/2000/svg">
<g clip-path="url(#clip0_2008_9)">
<path d="M30.2814 15.4255C28.9689 14.3505 28.0312 12.738 28.0312 10.7672V7.5422C28.0312 4.8547 29.7188 2.34637 32.3438 1.62969C36.6563 0.375526 40.7813 3.42137 40.7813 7.36303V10.7672C40.7813 12.5589 40.0314 14.1714 38.7189 15.2464" stroke="#B03F3F" stroke-width="3" stroke-miterlimit="10" stroke-linecap="round" stroke-linejoin="round"/>
<path d="M28.0312 9.87176C28.0312 9.87176 32.3438 10.7676 35.5313 6.82593C37.0313 8.43843 38.7188 8.97593 40.7813 8.43843" stroke="#B03F3F" stroke-width="3" stroke-miterlimit="10" stroke-linecap="round" stroke-linejoin="round"/>
<path d="M37.0312 22.4131L33.6562 14.1714L42.2812 17.3964L37.0312 22.4131Z" stroke="#B03F3F" stroke-width="3" stroke-miterlimit="10" stroke-linecap="round" stroke-linejoin="round"/>
<path d="M39.6562 19.9048L43.5938 23.6673" stroke="#B03F3F" stroke-width="3" stroke-miterlimit="10" stroke-linecap="round" stroke-linejoin="round"/>
<path d="M21.6563 6.71875H4.21875C2.71875 6.71875 1.40625 7.97292 1.40625 9.40625V38.9687C1.40625 40.4021 2.71875 41.6562 4.21875 41.6562H37.9688C39.4688 41.6562 40.7812 40.4021 40.7812 38.9687V27.8604" stroke="#B03F3F" stroke-width="3" stroke-miterlimit="10" stroke-linecap="round" stroke-linejoin="round"/>
<path d="M1.40625 14.7812H21.6563" stroke="#B03F3F" stroke-width="3" stroke-miterlimit="10" stroke-linecap="round" stroke-linejoin="round"/>
<path d="M30.0938 28.9355H35.7188" stroke="#B03F3F" stroke-width="3" stroke-miterlimit="10" stroke-linecap="round" stroke-linejoin="round"/>
<path d="M32.9062 26.248V31.623" stroke="#B03F3F" stroke-width="3" stroke-miterlimit="10" stroke-linecap="round" stroke-linejoin="round"/>
<path d="M10.3887 23.5605V34.3105" stroke="#B03F3F" stroke-width="3" stroke-linecap="round" stroke-linejoin="round"/>
<path d="M6.63867 26.248H7.57617C9.12948 26.248 10.3887 25.0449 10.3887 23.5605" stroke="#B03F3F" stroke-width="3" stroke-linecap="round" stroke-linejoin="round"/>
<path d="M14.1387 34.3105H6.63867" stroke="#B03F3F" stroke-width="3" stroke-linecap="round" stroke-linejoin="round"/>
<path d="M21.3081 28.4876H22.7144C24.1383 28.4876 25.2925 27.3847 25.2925 26.0241C25.2925 24.6635 24.1383 23.5605 22.7144 23.5605L21.3081 23.5607C19.8843 23.5607 18.73 24.6637 18.73 26.0241C18.73 27.3847 19.8843 28.4876 21.3081 28.4876Z" stroke="#B03F3F" stroke-width="3" stroke-linecap="round" stroke-linejoin="round"/>
<path d="M25.7613 31.6232V31.1753C25.7613 29.6911 24.502 28.4878 22.9488 28.4878H21.0738C19.5205 28.4878 18.2612 29.6911 18.2612 31.1753V31.6232C18.2612 33.1076 19.5205 34.3107 21.0738 34.3107H22.9488C24.502 34.3107 25.7613 33.1076 25.7613 31.6232Z" stroke="#B03F3F" stroke-width="3" stroke-linecap="round" stroke-linejoin="round"/>
</g>
<defs>
<clipPath id="clip0_2008_9">
<rect width="45" height="43" fill="white"/>
</clipPath>
</defs>
</svg>
