<svg width="28" height="26" viewBox="0 0 28 26" fill="none" xmlns="http://www.w3.org/2000/svg">
<g filter="url(#filter0_d_2014_172)">
<path d="M23.707 8.29279L15.707 0.292787C15.5671 0.152977 15.389 0.057771 15.195 0.0192035C15.0011 -0.0193641 14.8 0.000438951 14.6173 0.076109C14.4346 0.151779 14.2785 0.279918 14.1686 0.444328C14.0587 0.608738 14 0.802037 14 0.999787V4.54479C11.2683 4.79758 8.72923 6.06065 6.87969 8.08681C5.03015 10.113 4.00327 12.7564 4 15.4998V16.9998C4.00016 17.2074 4.06491 17.4098 4.18527 17.5789C4.30564 17.748 4.47565 17.8755 4.67173 17.9436C4.8678 18.0118 5.08022 18.0172 5.27953 17.9592C5.47883 17.9011 5.65514 17.7825 5.784 17.6198C6.7637 16.4547 7.96576 15.4966 9.31994 14.8014C10.6741 14.1062 12.1533 13.6878 13.671 13.5708C13.721 13.5648 13.846 13.5548 14 13.5448V16.9998C14 17.1975 14.0587 17.3908 14.1686 17.5552C14.2785 17.7197 14.4346 17.8478 14.6173 17.9235C14.8 17.9991 15.0011 18.0189 15.195 17.9804C15.389 17.9418 15.5671 17.8466 15.707 17.7068L23.707 9.70679C23.8945 9.51926 23.9998 9.26495 23.9998 8.99979C23.9998 8.73462 23.8945 8.48032 23.707 8.29279ZM16 14.5858V12.4998C16 12.2346 15.8946 11.9802 15.7071 11.7927C15.5196 11.6051 15.2652 11.4998 15 11.4998C14.745 11.4998 13.704 11.5498 13.438 11.5848C10.7429 11.8331 8.17742 12.8571 6.052 14.5328C6.29324 12.3272 7.33954 10.2881 8.99055 8.80595C10.6416 7.32376 12.7813 6.50263 15 6.49979C15.2652 6.49979 15.5196 6.39443 15.7071 6.20689C15.8946 6.01936 16 5.765 16 5.49979V3.41379L21.586 8.99979L16 14.5858Z" fill="black"/>
</g>
<defs>
<filter id="filter0_d_2014_172" x="0" y="0" width="28" height="25.9995" filterUnits="userSpaceOnUse" color-interpolation-filters="sRGB">
<feFlood flood-opacity="0" result="BackgroundImageFix"/>
<feColorMatrix in="SourceAlpha" type="matrix" values="0 0 0 0 0 0 0 0 0 0 0 0 0 0 0 0 0 0 127 0" result="hardAlpha"/>
<feOffset dy="4"/>
<feGaussianBlur stdDeviation="2"/>
<feComposite in2="hardAlpha" operator="out"/>
<feColorMatrix type="matrix" values="0 0 0 0 0 0 0 0 0 0 0 0 0 0 0 0 0 0 0.25 0"/>
<feBlend mode="normal" in2="BackgroundImageFix" result="effect1_dropShadow_2014_172"/>
<feBlend mode="normal" in="SourceGraphic" in2="effect1_dropShadow_2014_172" result="shape"/>
</filter>
</defs>
</svg>
