<svg width="47" height="40" viewBox="0 0 47 40" fill="none" xmlns="http://www.w3.org/2000/svg">
<path fill-rule="evenodd" clip-rule="evenodd" d="M17.4314 0.439914C16.5571 -0.101986 15.3322 0.0618932 14.6954 0.805949C14.0587 1.55 14.2513 2.59247 15.1255 3.13437L18.6138 5.2965C18.6938 5.3461 18.7767 5.38979 18.8619 5.42767C20.6144 7.30362 20.7346 9.97118 19.08 11.9427L19.0769 11.9465C17.7609 13.5332 15.6725 14.3353 13.581 14.2387L3.29763 7.29529C2.45035 6.72319 1.21855 6.84397 0.546332 7.56507C-0.125882 8.28617 0.0160429 9.3345 0.863331 9.9066L8.8741 15.3156C9.05239 16.9483 9.1571 18.5071 9.13233 20.0659L13.84 18.4361C14.5914 18.1759 15.4483 18.4834 15.754 19.1229C16.0596 19.7624 15.6983 20.4916 14.9469 20.7518L8.94303 22.8304C8.82976 23.7449 8.66242 24.6741 8.43032 25.6321L13.3423 24.2413C14.1119 24.0233 14.9435 24.3776 15.1996 25.0326C15.4557 25.6876 15.0393 26.3954 14.2696 26.6133L7.56296 28.5124C7.1547 29.6529 6.65378 30.8461 6.04552 32.1116C6.00867 32.1883 5.98546 32.2691 5.97665 32.3516C5.7929 34.0719 6.49805 35.6711 7.84216 36.8379C18.3731 27.5241 25.2915 18.5983 31.9353 6.31694L23.1816 1.07874L23.1616 1.06705C21.6895 0.231815 20.0216 0.529792 18.9327 1.37051L17.4314 0.439914ZM11.1261 38.7967L10.2436 38.3188C20.7476 28.9786 27.739 19.9641 34.3778 7.7785L35.7149 8.57874L35.721 8.5823C37.5561 9.6979 37.7692 11.6713 36.809 13.1382C34.8474 16.8091 32.8798 20.1574 30.7118 23.3446L30.6994 23.3626C26.9363 28.5878 22.3912 33.1288 16.505 37.9768C15.1741 39.4906 12.8696 39.6458 11.166 38.8172C11.1525 38.8107 11.1392 38.8039 11.1261 38.7967ZM32.1441 26.0972C28.5272 30.8309 24.2498 35.0418 18.9661 39.4274H45.531C45.8624 39.4274 46.1714 39.2848 46.352 39.0483C46.5327 38.8116 46.5603 38.5134 46.4258 38.2556L38.5925 23.2556C38.4714 23.0238 38.2327 22.8514 37.9443 22.7876C37.6556 22.7238 37.3487 22.7753 37.1102 22.9274L32.1441 26.0972Z" fill="#120071"/>
</svg>
