<svg width="45" height="44" viewBox="0 0 45 44" fill="none" xmlns="http://www.w3.org/2000/svg">
<path d="M8.5498 21.78C7.80388 21.78 7.08851 22.0698 6.56107 22.5855C6.03362 23.1012 5.7373 23.8007 5.7373 24.53V28.6367C5.7373 29.1229 5.93485 29.5892 6.28648 29.9331C6.63811 30.2769 7.11502 30.47 7.6123 30.47C8.10959 30.47 8.5865 30.2769 8.93813 29.9331C9.28976 29.5892 9.4873 29.1229 9.4873 28.6367V26.3634C9.4873 26.1202 9.58608 25.8871 9.76189 25.7152C9.93771 25.5433 10.1762 25.4467 10.4248 25.4467H12.7686C13.2658 25.4467 13.7428 25.2535 14.0944 24.9097C14.446 24.5659 14.6436 24.0996 14.6436 23.6134C14.6436 23.1271 14.446 22.6608 14.0944 22.317C13.7428 21.9732 13.2658 21.78 12.7686 21.78H8.5498Z" fill="#46B25C"/>
<path d="M42.1874 21.0833H26.3999L44.4561 3.6666C44.8054 3.32311 45.0014 2.85844 45.0014 2.3741C45.0014 1.88976 44.8054 1.4251 44.4561 1.0816C44.2818 0.909768 44.0744 0.773379 43.846 0.680303C43.6175 0.587227 43.3724 0.539307 43.1249 0.539307C42.8774 0.539307 42.6323 0.587227 42.4038 0.680303C42.1753 0.773379 41.9679 0.909768 41.7936 1.0816L1.10613 40.3333C0.798956 40.684 0.638445 41.1351 0.656672 41.5965C0.674899 42.0579 0.870522 42.4956 1.20445 42.8221C1.53838 43.1486 1.98601 43.3399 2.45791 43.3577C2.9298 43.3756 3.39119 43.2186 3.74988 42.9183L13.1249 33.9166H42.1874C42.9333 33.9166 43.6487 33.6269 44.1761 33.1111C44.7036 32.5954 44.9999 31.896 44.9999 31.1666V23.8333C44.9999 23.1039 44.7036 22.4045 44.1761 21.8887C43.6487 21.373 42.9333 21.0833 42.1874 21.0833ZM33.2811 29.3333C33.2811 29.5764 33.1824 29.8095 33.0065 29.9815C32.8307 30.1534 32.5923 30.2499 32.3436 30.2499H16.8749L22.4999 24.7499H32.2499C32.4985 24.7499 32.737 24.8465 32.9128 25.0184C33.0886 25.1903 33.1874 25.4235 33.1874 25.6666L33.2811 29.3333Z" fill="#46B25C"/>
<path d="M2.8125 33C3.06114 33 3.2996 32.9034 3.47541 32.7315C3.65123 32.5596 3.75 32.3264 3.75 32.0833V22.9167C3.75 22.6736 3.65123 22.4404 3.47541 22.2685C3.2996 22.0966 3.06114 22 2.8125 22C2.06658 22 1.35121 22.2897 0.823762 22.8055C0.296316 23.3212 0 24.0207 0 24.75L0 30.25C0 30.9793 0.296316 31.6788 0.823762 32.1945C1.35121 32.7103 2.06658 33 2.8125 33Z" fill="#46B25C"/>
<path d="M3.28125 19.2499C3.6527 19.2452 4.00757 19.0988 4.27025 18.8419C4.53293 18.5851 4.68264 18.2381 4.6875 17.8749V16.4999C4.6875 16.2568 4.78627 16.0236 4.96209 15.8517C5.1379 15.6798 5.37636 15.5833 5.625 15.5833H15C15.7308 15.5806 16.4449 15.3693 17.0545 14.9752C17.6641 14.581 18.1426 14.0214 18.4312 13.3649C18.5072 13.2044 18.6291 13.0688 18.7821 12.9744C18.9352 12.8801 19.1128 12.8311 19.2938 12.8333H24.375C25.1209 12.8333 25.8363 12.5435 26.3637 12.0278C26.8912 11.5121 27.1875 10.8126 27.1875 10.0833C27.1875 9.35391 26.8912 8.65443 26.3637 8.13871C25.8363 7.62298 25.1209 7.33325 24.375 7.33325H15.9375C15.2088 7.33433 14.4962 7.54298 13.8868 7.93369C13.2775 8.32439 12.7977 8.88023 12.5063 9.53325C12.4311 9.69583 12.31 9.834 12.1572 9.93146C12.0044 10.0289 11.8262 10.0816 11.6438 10.0833H8.4375C6.69702 10.0833 5.02782 10.7593 3.79711 11.9627C2.5664 13.166 1.875 14.7981 1.875 16.4999V17.8749C1.87986 18.2381 2.02957 18.5851 2.29225 18.8419C2.55493 19.0988 2.9098 19.2452 3.28125 19.2499Z" fill="#46B25C"/>
</svg>
