<svg width="191" height="177" viewBox="0 0 191 177" fill="none" xmlns="http://www.w3.org/2000/svg">
<path d="M67.6414 128.895L58.9701 134.387C56.2398 136.12 50.8477 139.228 48.1064 142.01H83.5299L84.1254 141.562L79.957 134.359C75.7677 132.697 71.6539 130.889 67.6414 128.895Z" fill="#FECFC4"/>
<path d="M141.937 142.01C139.196 139.228 133.804 136.12 131.074 134.387C127.619 132.192 123.647 129.68 123.647 129.68L115.699 124.657L105.919 141.56L106.515 142.008L141.937 142.01Z" fill="#FECFC4"/>
<path fill-rule="evenodd" clip-rule="evenodd" d="M148.196 80.0037C149.801 72.0534 149.634 63.8423 147.705 55.9655C145.777 48.0885 142.137 40.743 137.049 34.4609C131.961 28.1786 125.551 23.1171 118.285 19.6428C111.019 16.1686 103.078 14.3684 95.0374 14.3731C86.9972 14.3776 79.0585 16.1866 71.7963 19.6691C64.5342 23.1517 58.1304 28.2204 53.049 34.5083C47.9677 40.7963 44.3358 48.1459 42.4165 56.025C40.4972 63.9041 40.3385 72.1153 41.9519 80.0638L67.2198 65.4096C73.1275 62.1547 79.132 60.1541 84.8919 59.8602C74.256 55.8541 73.9912 46.242 84.7524 42.0146C84.8306 40.3818 85.2879 38.7904 86.0875 37.3685C86.887 35.9468 88.0065 34.7345 89.3556 33.8294C90.7047 32.9243 92.2456 32.3519 93.8542 32.158C95.4632 31.9642 97.0938 32.1546 98.6163 32.7136C100.523 33.432 102.18 34.6957 103.385 36.35C104.591 38.0043 105.292 39.9774 105.403 42.0276C115.649 46.0477 116.371 55.6191 105.161 59.8614C105.134 59.8697 105.107 59.8778 105.08 59.8858C111.269 60.1748 117.457 62.3763 122.792 65.4096L148.196 80.0037Z" fill="#FECFC4"/>
<path d="M105.403 42.0277C105.292 39.9775 104.591 38.0043 103.386 36.35C102.18 34.6958 100.523 33.4321 98.6167 32.7137C97.0942 32.1546 95.4636 31.9642 93.8545 32.158C92.246 32.3519 90.7049 32.9244 89.3559 33.8294C88.0068 34.7345 86.8874 35.9468 86.0877 37.3686C85.2882 38.7904 84.8309 40.3818 84.7528 42.0147C73.9913 46.242 74.2563 55.8545 84.8927 59.8605C88.8706 57.0322 91.5889 52.7698 92.2658 45.3106C92.0249 45.0468 91.8124 44.7582 91.6316 44.4493C90.9108 43.1836 90.5643 41.7359 90.6333 40.2777C90.7022 38.8196 91.1836 37.4117 92.0207 36.2209C92.4305 35.5798 93.0278 35.0831 93.7299 34.7998C94.432 34.5164 95.2035 34.4605 95.939 34.6396C97.8247 35.1573 99.1615 37.1123 99.4315 39.7422C99.5665 40.7555 99.4901 41.786 99.2072 42.7677C98.9243 43.7493 98.441 44.6605 97.7889 45.4428C97.9795 48.5785 98.3586 51.7613 100.018 54.5325C101.305 56.6829 103.065 58.5061 105.161 59.8615C116.371 55.6191 115.65 46.0477 105.403 42.0277Z" fill="#6153BD"/>
<path d="M77.3797 77.3687C76.9271 78.8499 75.6379 82.8099 75.1109 83.3517C75.0777 83.3862 75.0578 83.4316 75.055 83.4797C75.0522 83.5277 75.0666 83.5752 75.0957 83.6134C75.1247 83.6515 75.1664 83.6779 75.2131 83.6876C75.2599 83.6973 75.3084 83.6897 75.3501 83.6662L77.6665 82.3413C77.6968 82.3235 77.7219 82.2982 77.7394 82.2676C77.7567 82.2369 77.7659 82.2023 77.7658 82.1669V77.4279C77.7643 77.381 77.7467 77.3361 77.7159 77.3011C77.6851 77.266 77.643 77.243 77.5972 77.2359C77.5512 77.2289 77.5044 77.2384 77.4646 77.2626C77.4249 77.2869 77.3948 77.3244 77.3797 77.3687Z" fill="#6153BD"/>
<path d="M114.923 83.3358C114.396 82.794 113.107 78.829 112.654 77.3528C112.64 77.3071 112.611 77.268 112.57 77.2425C112.53 77.2171 112.481 77.207 112.435 77.2142C112.388 77.2213 112.346 77.2452 112.315 77.2815C112.283 77.3177 112.266 77.364 112.266 77.4119V82.15C112.266 82.1854 112.275 82.22 112.293 82.2507C112.31 82.2812 112.335 82.3066 112.365 82.3243L114.683 83.6493C114.724 83.6727 114.773 83.6804 114.82 83.6708C114.866 83.6612 114.908 83.635 114.937 83.597C114.966 83.559 114.981 83.5118 114.978 83.4638C114.976 83.4159 114.956 83.3704 114.923 83.3358Z" fill="#6153BD"/>
<path d="M63.8769 131.279L67.8398 128.775C63.8271 126.974 60.0954 124.595 56.7618 121.71C56.7248 121.676 56.6764 121.657 56.6261 121.658C56.576 121.658 56.5278 121.677 56.4914 121.712C56.4548 121.747 56.4328 121.794 56.4296 121.845C56.4263 121.895 56.4422 121.945 56.474 121.984L63.8769 131.279Z" fill="#6153BD"/>
<path d="M126.167 131.279L122.204 128.775C126.216 126.974 129.948 124.595 133.282 121.71C133.318 121.676 133.367 121.657 133.418 121.658C133.467 121.658 133.516 121.677 133.552 121.712C133.588 121.747 133.61 121.794 133.614 121.845C133.617 121.895 133.601 121.945 133.569 121.984L126.167 131.279Z" fill="#6153BD"/>
<path d="M45.1005 96.6959C45.1304 96.6618 45.1478 96.6178 45.1498 96.5727C45.1517 96.5266 45.1382 96.4816 45.1114 96.4455C45.0847 96.4085 45.0463 96.3824 45.0027 96.3704C44.959 96.3584 44.9127 96.3624 44.8713 96.3804C40.9252 98.13 38.1046 102.47 38.043 105.27C38.0421 105.306 38.0507 105.341 38.0677 105.372C38.0849 105.403 38.1098 105.429 38.1402 105.447C38.1705 105.465 38.205 105.475 38.2403 105.475C38.2756 105.475 38.3102 105.466 38.3408 105.448C39.2598 104.93 40.1766 104.409 41.0909 103.886C41.1351 103.861 41.1681 103.82 41.1832 103.771C41.9722 101.157 43.3081 98.744 45.1005 96.6959Z" fill="#6153BD"/>
<path d="M151.99 105.096C151.819 102.292 149.034 98.0949 145.169 96.3833C145.127 96.3653 145.081 96.3613 145.038 96.3733C144.994 96.3843 144.955 96.4114 144.929 96.4484C144.902 96.4845 144.888 96.5296 144.89 96.5756C144.892 96.6207 144.91 96.6648 144.939 96.6988C146.594 98.5877 147.86 100.788 148.667 103.174C149.822 103.841 150.935 104.484 151.99 105.096Z" fill="#6153BD"/>
<path d="M105.403 42.0277C105.292 39.9775 104.591 38.0043 103.386 36.35C102.181 34.6958 100.523 33.4321 98.6167 32.7137C97.0942 32.1546 95.4636 31.9642 93.8546 32.158C92.246 32.3519 90.705 32.9244 89.3559 33.8294C88.0068 34.7345 86.8874 35.9468 86.0878 37.3686C85.2883 38.7904 84.831 40.3818 84.7528 42.0147C73.9913 46.242 74.2563 55.8545 84.8927 59.8605C88.8706 57.0322 91.5889 52.7698 92.2658 45.3106C92.025 45.0468 91.8125 44.7582 91.6316 44.4493C90.9108 43.1836 90.5643 41.7359 90.6333 40.2777C90.7023 38.8196 91.1837 37.4117 92.0207 36.2209C92.4306 35.5798 93.0278 35.0831 93.7299 34.7998C94.432 34.5164 95.2035 34.4605 95.939 34.6396C97.8247 35.1573 99.1615 37.1123 99.4315 39.7422C99.5665 40.7555 99.4901 41.786 99.2072 42.7677C98.9243 43.7493 98.441 44.6605 97.7889 45.4428C97.9795 48.5785 98.3586 51.7613 100.018 54.5325C101.305 56.6829 103.065 58.5061 105.161 59.8615C116.371 55.6191 115.65 46.0477 105.403 42.0277Z" stroke="#120071" stroke-width="2" stroke-linecap="round" stroke-linejoin="round"/>
<path d="M99.4313 39.7463C99.1614 37.1163 97.8235 35.1614 95.9388 34.6436C95.2034 34.4644 94.4318 34.5204 93.7298 34.8037C93.0277 35.0871 92.4304 35.5837 92.0205 36.225C91.1835 37.4157 90.7021 38.8235 90.6331 40.2817C90.5641 41.74 90.9106 43.1875 91.6315 44.4533C92.6745 46.227 94.7161 47.3076 96.6048 46.3372C98.9023 45.1534 99.6804 42.1749 99.4313 39.7463Z" stroke="#120071" stroke-width="2" stroke-miterlimit="10"/>
<path d="M61.4453 91.6353C66.9952 88.3163 72.302 85.1606 77.5691 82.1671C77.5939 83.8106 77.7735 94.6318 78.2023 96.2512C80.826 97.5552 83.5431 98.6578 86.3307 99.5502C93.2145 101.786 97.2211 102.011 106 98.8111C108.067 98.08 110.089 97.2227 112.054 96.2442C112.046 95.5101 112.319 89.7024 112.46 82.1511C115.171 83.7065 121.382 87.3159 128.759 91.6052" stroke="#120071" stroke-width="2" stroke-linecap="round" stroke-linejoin="round"/>
<path d="M148.928 103.322C155.769 107.289 161.048 110.332 162.039 110.851L162.21 110.941L171.926 93.491C171.926 93.491 138.151 74.3543 130.738 70.0217C123.681 65.8985 120.46 64.0127 117.686 62.879C113.685 61.2432 109.462 60.2273 105.161 59.8655C98.5661 61.9637 91.4902 61.9637 84.8947 59.8655C79.0667 60.364 73.401 62.0585 68.245 64.845C67.189 65.4198 65.0948 66.6477 61.9249 68.4985C43.9382 79.0143 34.6318 84.2642 18.1299 93.491L27.8462 110.941C32.3302 108.589 36.6793 106.179 40.9926 103.712" stroke="#120071" stroke-width="2" stroke-linecap="round" stroke-linejoin="round"/>
<path d="M148.196 80.0037C149.801 72.0534 149.634 63.8423 147.705 55.9655C145.777 48.0885 142.137 40.743 137.049 34.4609C131.961 28.1786 125.551 23.1171 118.285 19.6428C111.019 16.1686 103.078 14.3684 95.0374 14.3731C86.9973 14.3776 79.0585 16.1866 71.7963 19.6691C64.5342 23.1517 58.1305 28.2204 53.0491 34.5083C47.9678 40.7963 44.3358 48.1459 42.4165 56.025C40.4972 63.9041 40.3385 72.1153 41.9519 80.0638" stroke="#120071" stroke-width="2" stroke-linecap="round" stroke-linejoin="round"/>
<path d="M43.6118 120.796C40.6045 120.347 37.5327 120.756 34.744 121.978C31.9551 123.199 29.5607 125.184 27.8315 127.707C25.8069 130.651 24.7767 134.175 24.8937 137.757C25.0107 141.338 26.2686 144.786 28.4808 147.589C30.6932 150.393 33.742 152.402 37.1749 153.318C40.608 154.234 44.2425 154.01 47.5391 152.678C48.2396 155.918 49.7469 158.924 51.9189 161.413C54.0908 163.901 56.8556 165.79 59.9521 166.9C63.0485 168.011 66.3744 168.307 69.6155 167.759C72.8566 167.212 75.906 165.84 78.4755 163.773C78.495 163.76 78.5169 163.751 78.5401 163.747C80.0817 167.175 82.5675 170.083 85.7014 172.125C88.8351 174.166 92.4847 175.257 96.2151 175.264C98.6774 175.263 101.117 174.785 103.401 173.856C106.257 172.682 108.795 170.84 110.806 168.482C112.818 166.124 114.245 163.317 114.971 160.292C114.985 160.29 114.999 160.291 115.012 160.296C115.025 160.302 115.036 160.311 115.045 160.322C117.263 163.252 120.256 165.49 123.68 166.777C127.104 168.064 130.819 168.349 134.396 167.596C137.973 166.844 141.267 165.088 143.896 162.528C146.526 159.968 148.385 156.71 149.258 153.13C152.088 154.009 155.101 154.097 157.975 153.383C160.85 152.67 163.479 151.182 165.581 149.078C167.928 146.77 169.539 143.808 170.209 140.571C170.878 137.334 170.574 133.969 169.338 130.906C168.101 127.845 165.987 125.224 163.266 123.381C160.544 121.539 157.341 120.558 154.064 120.563C150.953 120.586 146.607 122.285 144.647 123.067" stroke="#120071" stroke-width="2" stroke-linecap="round" stroke-linejoin="round"/>
<path d="M154.581 90.9812L169.028 98.6938" stroke="#120071" stroke-width="2" stroke-linecap="round" stroke-linejoin="round"/>
<path d="M35.4089 90.9282L21.021 98.6829" stroke="#120071" stroke-width="2" stroke-linecap="round" stroke-linejoin="round"/>
<path d="M100.018 54.5365C98.3585 51.7654 97.9794 48.5826 97.7888 45.4469C97.4454 45.8078 97.0455 46.1088 96.6048 46.3372C95.8733 46.6825 95.0476 46.7697 94.2605 46.5844C93.4736 46.3991 92.7714 45.9522 92.2667 45.3157C91.5888 52.7749 88.8704 57.0333 84.8926 59.8645C91.4884 61.9627 98.5639 61.9627 105.16 59.8645C103.064 58.5097 101.304 56.6867 100.018 54.5365Z" stroke="#120071" stroke-width="2" stroke-linecap="round" stroke-linejoin="round"/>
<path d="M81.7754 85.2366C83.7857 86.893 86.2035 87.968 88.7714 88.3472" stroke="#120071" stroke-width="2" stroke-linecap="round" stroke-linejoin="round"/>
<path d="M108.268 85.2366C106.259 86.893 103.84 87.968 101.272 88.3472" stroke="#120071" stroke-width="2" stroke-linecap="round" stroke-linejoin="round"/>
<path d="M94.5835 109.861C85.3197 103.493 77.3144 97.9939 71.4588 95.0795C66.5708 92.6489 54.3515 87.7756 46.4702 95.0074C38.9204 101.935 37.2848 114.312 46.3561 124.177C50.2534 128.251 54.9352 131.478 60.1138 133.66L67.6387 128.895C79.5544 134.82 92.4109 139.087 105.172 142.849L116.003 124.128C108.695 119.558 101.715 114.763 94.5835 109.861Z" stroke="#120071" stroke-width="2" stroke-linecap="round" stroke-linejoin="round"/>
<path d="M67.6415 128.895C58.8988 124.621 54.8296 121.055 51.0205 114.962" stroke="#120071" stroke-width="2" stroke-linecap="round" stroke-linejoin="round"/>
<path d="M48.1064 142.01H83.5299" stroke="#120071" stroke-width="2" stroke-linecap="round" stroke-linejoin="round"/>
<path d="M67.6414 128.895L66.3968 129.681C66.3968 129.681 62.4269 132.192 58.9701 134.389C55.5133 136.585 47.7948 140.977 46.582 144.128H80.7163L84.1244 141.564L79.956 134.361C75.7678 132.697 71.654 130.889 67.6414 128.895Z" stroke="#120071" stroke-width="2" stroke-linecap="round" stroke-linejoin="round"/>
<path d="M95.022 110.162L95.4606 109.862C104.724 103.494 112.73 97.9949 118.585 95.0805C123.473 92.6499 135.693 87.7765 143.574 95.0084C151.124 101.936 152.759 114.313 143.688 124.178C139.791 128.252 135.109 131.479 129.93 133.661" stroke="#120071" stroke-width="2" stroke-linecap="round" stroke-linejoin="round"/>
<path d="M122.402 128.895C131.145 124.621 135.214 121.055 139.023 114.962" stroke="#120071" stroke-width="2" stroke-linecap="round" stroke-linejoin="round"/>
<path d="M131.074 134.387C127.619 132.192 123.647 129.68 123.647 129.68L115.699 124.657L105.919 141.56L109.328 144.124H143.462C142.249 140.976 134.529 136.581 131.074 134.387Z" stroke="#120071" stroke-width="2" stroke-linecap="round" stroke-linejoin="round"/>
<path d="M141.937 142.01H106.514" stroke="#120071" stroke-width="2" stroke-linecap="round" stroke-linejoin="round"/>
<path d="M95.0218 139.728C91.6434 140.818 88.2591 141.859 84.8688 142.849L79.957 134.359" stroke="#120071" stroke-width="2" stroke-linecap="round" stroke-linejoin="round"/>
<path d="M105.185 103.233V99.1025" stroke="#120071" stroke-width="2" stroke-linecap="round" stroke-linejoin="round"/>
<path d="M84.8589 99.0525V103.233" stroke="#120071" stroke-width="2" stroke-linecap="round" stroke-linejoin="round"/>
<path d="M19.3694 95.7175C14.7325 95.9619 13.6726 95.6174 9.06253 99.0606C7.35199 100.186 5.94526 101.723 4.96857 103.532C4.09817 105.412 4.87826 105.914 5.96104 105.519C6.4544 105.313 6.91967 105.044 7.34554 104.718L11.7333 101.88L11.7799 101.908C11.7045 103.911 9.57861 106.028 7.32867 108.272C5.63498 109.843 4.11247 111.59 2.78711 113.487C1.93604 114.773 1.33734 116.212 1.02348 117.726C0.99573 117.849 0.992544 117.977 1.0141 118.102C1.03567 118.227 1.08155 118.347 1.14911 118.454C1.21665 118.56 1.30455 118.653 1.40768 118.725C1.51081 118.797 1.62715 118.848 1.74997 118.875C1.86764 118.907 1.99204 118.905 2.10824 118.867C2.22443 118.83 2.32748 118.76 2.40501 118.665C2.61343 118.478 2.83773 118.272 3.01935 118.094C2.84063 118.427 2.69917 118.778 2.59755 119.142C2.48463 119.378 2.44009 119.642 2.46906 119.902C2.49804 120.162 2.59934 120.409 2.7613 120.614C2.97984 120.824 3.26123 120.954 3.56137 120.986C3.8615 121.017 4.16342 120.946 4.41973 120.786C4.85164 120.534 5.24566 120.221 5.58986 119.857C5.40131 120.201 5.24737 120.564 5.13035 120.939C5.06116 121.085 5.02524 121.244 5.02524 121.406C5.02524 121.567 5.06116 121.727 5.13035 121.872C5.20986 122.014 5.3169 122.139 5.44511 122.238C5.57332 122.339 5.72007 122.412 5.87668 122.453C6.32627 122.533 6.78916 122.481 7.21037 122.302C7.63167 122.125 7.99373 121.83 8.25366 121.451C8.38764 121.337 8.53542 121.24 8.69333 121.163C8.49691 121.353 8.3541 121.592 8.27966 121.856C8.20523 122.12 8.20165 122.4 8.26954 122.665C8.34318 122.888 8.49106 123.08 8.68816 123.206C8.88537 123.332 9.11959 123.385 9.35134 123.357C9.67379 123.345 9.99436 123.303 10.3091 123.232C10.4222 123.21 10.5344 123.188 10.6455 123.169C15.4471 122.346 18.1596 119.055 21.0328 115.57C22.78 113.291 24.7748 111.217 26.9797 109.386L19.3694 95.7175Z" stroke="#120071" stroke-width="2" stroke-linecap="round" stroke-linejoin="round"/>
<path d="M18.0564 112.885C16.4056 115.898 13.8675 118.318 10.7934 119.812C10.0665 120.216 9.36545 120.667 8.69434 121.16" stroke="#120071" stroke-width="2" stroke-linecap="round" stroke-linejoin="round"/>
<path d="M15.6239 109.261C13.5959 112.503 10.992 115.338 7.94317 117.624C7.15861 118.199 6.42775 118.845 5.75972 119.554C5.48718 119.984 5.27289 120.449 5.12256 120.936" stroke="#120071" stroke-width="2" stroke-linecap="round" stroke-linejoin="round"/>
<path d="M12.8609 107.669C11.0833 110.382 8.85879 112.766 6.28371 114.72C4.50718 116.169 3.10779 117.314 2.59766 119.139" stroke="#120071" stroke-width="2" stroke-linecap="round" stroke-linejoin="round"/>
<path d="M170.674 95.7175C175.311 95.9619 176.371 95.6174 180.981 99.0606C182.691 100.186 184.099 101.723 185.075 103.532C185.946 105.412 185.165 105.914 184.083 105.519C183.589 105.313 183.124 105.044 182.698 104.718L178.31 101.88L178.264 101.908C178.339 103.911 180.465 106.028 182.715 108.272C184.409 109.843 185.932 111.59 187.257 113.487C188.108 114.773 188.707 116.212 189.02 117.726C189.048 117.849 189.051 117.977 189.029 118.102C189.008 118.227 188.962 118.347 188.894 118.454C188.827 118.56 188.739 118.653 188.636 118.725C188.533 118.797 188.417 118.848 188.294 118.875C188.176 118.907 188.052 118.905 187.935 118.867C187.819 118.83 187.716 118.76 187.639 118.665C187.43 118.478 187.206 118.272 187.024 118.094C187.203 118.427 187.345 118.778 187.446 119.142C187.559 119.378 187.604 119.642 187.574 119.902C187.545 120.162 187.444 120.409 187.282 120.614C187.064 120.824 186.782 120.954 186.482 120.986C186.182 121.017 185.88 120.946 185.624 120.786C185.192 120.534 184.798 120.221 184.454 119.857C184.642 120.201 184.796 120.564 184.913 120.939C184.983 121.085 185.019 121.244 185.019 121.406C185.019 121.567 184.983 121.727 184.913 121.872C184.834 122.014 184.727 122.139 184.599 122.238C184.471 122.339 184.324 122.412 184.167 122.453C183.717 122.533 183.255 122.481 182.833 122.302C182.412 122.125 182.05 121.83 181.79 121.451C181.656 121.337 181.508 121.24 181.35 121.163C181.547 121.353 181.69 121.592 181.764 121.856C181.839 122.12 181.842 122.4 181.774 122.665C181.701 122.888 181.553 123.08 181.355 123.206C181.159 123.332 180.924 123.385 180.692 123.357C180.37 123.345 180.049 123.303 179.735 123.232C179.621 123.21 179.509 123.188 179.398 123.169C174.597 122.346 171.884 119.055 169.011 115.57C167.263 113.291 165.269 111.217 163.064 109.386L170.674 95.7175Z" stroke="#120071" stroke-width="2" stroke-linecap="round" stroke-linejoin="round"/>
<path d="M171.987 112.885C173.638 115.898 176.177 118.318 179.25 119.812C179.977 120.216 180.678 120.667 181.349 121.16" stroke="#120071" stroke-width="2" stroke-linecap="round" stroke-linejoin="round"/>
<path d="M174.42 109.261C176.448 112.503 179.052 115.338 182.101 117.624C182.885 118.199 183.616 118.845 184.284 119.554C184.557 119.984 184.771 120.449 184.921 120.936" stroke="#120071" stroke-width="2" stroke-linecap="round" stroke-linejoin="round"/>
<path d="M177.183 107.669C178.961 110.382 181.185 112.766 183.76 114.72C185.537 116.169 186.936 117.314 187.446 119.139" stroke="#120071" stroke-width="2" stroke-linecap="round" stroke-linejoin="round"/>
<path d="M11.3433 83.6643V95.2116" stroke="#120071" stroke-width="2" stroke-linecap="round" stroke-linejoin="round"/>
<path d="M17.0648 89.438H5.62158" stroke="#120071" stroke-width="2" stroke-linecap="round" stroke-linejoin="round"/>
<path d="M21.3486 51.675V58.3391" stroke="#120071" stroke-width="2" stroke-linecap="round" stroke-linejoin="round"/>
<path d="M24.6503 55.0073H18.0464" stroke="#120071" stroke-width="2" stroke-linecap="round" stroke-linejoin="round"/>
<path d="M40.8267 19.7441V28.2219" stroke="#120071" stroke-width="2" stroke-linecap="round" stroke-linejoin="round"/>
<path d="M45.0268 23.9836H36.6255" stroke="#120071" stroke-width="2" stroke-linecap="round" stroke-linejoin="round"/>
<path d="M65.0708 32.3301V40.6846" stroke="#120071" stroke-width="2" stroke-linecap="round" stroke-linejoin="round"/>
<path d="M69.2104 36.5073H60.9312" stroke="#120071" stroke-width="2" stroke-linecap="round" stroke-linejoin="round"/>
<path d="M149.325 1V19.7983" stroke="#120071" stroke-width="2" stroke-linecap="round" stroke-linejoin="round"/>
<path d="M158.641 10.3992H140.011" stroke="#120071" stroke-width="2" stroke-linecap="round" stroke-linejoin="round"/>
<path d="M162.801 34.4824H174.209" stroke="#120071" stroke-width="2" stroke-linecap="round" stroke-linejoin="round"/>
<path d="M168.505 40.2381V28.7268" stroke="#120071" stroke-width="2" stroke-linecap="round" stroke-linejoin="round"/>
<path d="M158.089 68.0107V73.8085" stroke="#120071" stroke-width="2" stroke-linecap="round" stroke-linejoin="round"/>
<path d="M160.962 70.9102H155.215" stroke="#120071" stroke-width="2" stroke-linecap="round" stroke-linejoin="round"/>
<path d="M172.962 84.0559L183.56 94.7489" stroke="#120071" stroke-width="2" stroke-linecap="round" stroke-linejoin="round"/>
<path d="M172.962 94.7489L183.56 84.0559" stroke="#120071" stroke-width="2" stroke-linecap="round" stroke-linejoin="round"/>
<path d="M179.687 140.667L184.062 145.083" stroke="#120071" stroke-width="2" stroke-linecap="round" stroke-linejoin="round"/>
<path d="M179.687 145.083L184.062 140.667" stroke="#120071" stroke-width="2" stroke-linecap="round" stroke-linejoin="round"/>
<path d="M37.9824 157.695L42.4118 162.164" stroke="#120071" stroke-width="2" stroke-linecap="round" stroke-linejoin="round"/>
<path d="M37.9824 162.164L42.4118 157.695" stroke="#120071" stroke-width="2" stroke-linecap="round" stroke-linejoin="round"/>
</svg>
