<svg width="58" height="42" viewBox="0 0 58 42" fill="none" xmlns="http://www.w3.org/2000/svg">
<path fill-rule="evenodd" clip-rule="evenodd" d="M35.0906 1.697C33.6811 2.30433 32.9531 3.75866 33.4645 4.94536L37.3532 13.9699L17.9584 22.3273L14.0696 13.3027C13.5583 12.116 12.0012 11.6464 10.5918 12.2537C9.18238 12.861 8.45437 14.3154 8.96572 15.5021L19.3357 39.5675C19.8471 40.7543 21.4041 41.2239 22.8135 40.6165C24.223 40.0092 24.951 38.555 24.4396 37.3682L20.5509 28.3437L39.9457 19.9863L43.8345 29.0108C44.3459 30.1976 45.9029 30.6672 47.3123 30.0598C48.7218 29.4525 49.4498 27.9983 48.9384 26.8115L38.5684 2.74605C38.057 1.55935 36.5001 1.08964 35.0906 1.697ZM45.759 1.17616C44.3495 1.78352 43.6216 3.23782 44.133 4.42452L51.5401 21.6141C52.0514 22.8008 53.6084 23.2705 55.0179 22.6632C56.4274 22.0558 57.1553 20.6015 56.644 19.4148L54.2367 13.8282L55.2575 13.3883C57.2304 12.5382 58.2498 10.502 57.5339 8.84063C56.818 7.17925 54.6379 6.5218 52.665 7.37197L51.6442 7.81183L49.2369 2.22521C48.7255 1.03851 47.1685 0.5688 45.759 1.17616ZM6.36402 20.6994C5.85266 19.5127 4.29559 19.0431 2.88618 19.6504C1.47676 20.2577 0.748754 21.712 1.26011 22.8987L3.66743 28.4854L2.64665 28.9252C0.673479 29.7755 -0.345741 31.8116 0.370157 33.4729C1.08606 35.1343 3.26597 35.7918 5.23914 34.9416L6.25992 34.5017L8.66724 40.0883C9.1786 41.275 10.7357 41.7447 12.1451 41.1374C13.5545 40.5301 14.2825 39.0757 13.7712 37.889L6.36402 20.6994Z" fill="#E8A02C"/>
</svg>
